<?xml version="1.0" encoding="utf-8"?>
<!DOCTYPE svg PUBLIC "-//W3C//DTD SVG 20010904//EN" "http://www.w3.org/TR/2001/REC-SVG-20010904/DTD/svg10.dtd">
<svg version="1.0" xmlns="http://www.w3.org/2000/svg" width="400px" height="400px" viewBox="0 0 400 400" preserveAspectRatio="xMidYMid meet">
 <g fill="#ffffff">
  <path d="M0 200 l0 -200 200 0 200 0 0 200 0 200 -200 0 -200 0 0 -200z m283.1 23.5 c2.5 -0.3 6.4 -1.8 8.7 -3.2 3.9 -2.6 8.2 -8.6 8.2 -11.6 0 -2.2 -4.5 -5.1 -11 -7.2 -10.5 -3.4 -11 -3.8 -11 -10 0 -4.6 0.4 -5.6 2.6 -7.4 3.4 -2.6 1.5 -2.7 -3.5 -0.1 -4.3 2.2 -7.8 6.1 -8.7 9.7 -0.9 3.6 2.8 6.9 10.5 9.4 10.2 3.3 11.1 4.1 11.1 9.8 0 7.4 -2.1 9.4 -10.4 9.9 -7.6 0.5 -9.6 -0.5 -9.6 -4.9 0 -2.8 -0.2 -2.9 -4.5 -2.9 -4.1 0 -4.5 0.2 -4.5 2.5 0 1.5 0.9 3.1 2.4 4.1 2.5 1.6 10.9 3.4 13.6 2.9 0.8 -0.2 3.6 -0.6 6.1 -1z m-180.1 -1.6 c4.1 -0.6 13.5 -2.6 20.8 -4.5 7.2 -1.9 14.1 -3.4 15.2 -3.4 1.2 0 2 -0.7 2 -1.6 0 -0.9 0.8 -3.1 1.9 -4.8 2 -3.3 4.5 -10.5 3.9 -11.1 -0.7 -0.8 -22.6 4.5 -33.1 7.9 -16.7 5.5 -36.2 15.4 -34.2 17.4 0.9 1 8 1.8 12 1.5 2.2 -0.2 7.4 -0.8 11.5 -1.4z m63.6 -2.4 c0.8 -2.2 2.1 -5.8 2.8 -8 l1.3 -4 -7.5 3.7 c-4.1 2 -10.1 4.5 -13.3 5.5 -3.2 1 -6 2.5 -6.3 3.3 -0.4 0.8 -0.9 2.1 -1.2 2.8 -0.5 1 1.9 1.2 11.1 1 l11.7 -0.3 1.4 -4z m25.5 0 c2.8 -5.3 4.3 -5.8 16.4 -5.3 l8 0.3 0.3 4.8 0.3 4.7 4.6 0 4.5 0 -0.6 -16.7 c-0.4 -9.3 -0.9 -19 -1.2 -21.6 l-0.6 -4.8 -6.6 0.3 -6.6 0.3 -13.3 20.5 c-7.2 11.3 -13.2 20.8 -13.2 21.3 -0.1 0.4 1.2 0.7 2.8 0.7 2.3 0 3.2 -0.8 5.2 -4.5z m54.9 2.1 c0.5 -1.3 3.2 -10.5 6.1 -20.3 2.8 -9.8 5.4 -18.4 5.6 -19 0.4 -0.9 -0.7 -1.3 -3.6 -1.3 l-4 0 -2 6.8 c-6.1 20.6 -10.1 34.6 -10.1 35.4 0 0.4 1.6 0.8 3.5 0.8 2.8 0 3.7 -0.5 4.5 -2.4z m82.3 -5.3 c1.3 -4.3 3.9 -13.1 5.7 -19.5 l3.4 -11.7 7 -0.3 c5.8 -0.2 7.1 -0.6 7.4 -2.1 0.3 -1.6 -0.9 -1.7 -17.5 -1.5 -16 0.3 -17.8 0.5 -18.1 2.1 -0.3 1.5 0.5 1.7 5.7 1.7 5.9 0 6.1 0.1 6.1 2.6 0 2 -6.6 26.3 -9.5 35.2 -0.3 0.8 0.8 1.2 3.5 1.2 l3.9 0 2.4 -7.7z m-158.4 -31.6 c-1.7 -3.4 -3.2 -4.8 -7.2 -6.6 -6.2 -2.9 -12.4 -2.9 -22.7 -0.3 -7.3 1.9 -27.3 9.2 -26.8 9.8 0.2 0.1 2.3 -0.2 4.8 -0.6 7.3 -1.5 24.1 -1.2 27 0.4 1.7 1 6.3 1.4 14.7 1.5 l12.3 0.1 -2.1 -4.3z m134.1 2.9 c0 -1.9 -2.7 -4.5 -5.7 -5.7 -1.3 -0.5 -5.4 -0.8 -9.1 -0.7 -4.2 0.1 -5.2 0.3 -2.7 0.5 7.6 0.6 8.5 1.1 8.5 4.3 0 2.9 0.2 3 4.5 3 3.2 0 4.5 -0.4 4.5 -1.4z"/>
  <path d="M200 208.5 c0 -3.2 1 -5.4 8.2 -18.2 2.7 -4.9 3.3 -5.3 6.5 -5.3 l3.6 0 -0.7 6.1 c-0.3 3.4 -0.6 9.5 -0.6 13.5 l0 7.4 -8.5 0 -8.5 0 0 -3.5z"/>
 </g>
 <g fill="#000000">
  <path d="M267.9 227 c-8.8 -1.5 -11.5 -4.5 -10.4 -11.1 l0.7 -3.9 7.6 0 7.7 0 0 3.1 c0 4.2 2.2 5.6 7.1 4.3 4.6 -1.1 7.6 -5.3 5.8 -8.1 -0.6 -1 -4.6 -3.1 -9 -4.6 -9.8 -3.5 -12.9 -6.3 -12.8 -11.6 0.2 -7.5 6 -13.8 14.8 -16.2 6.3 -1.8 19.7 -1.4 23.9 0.6 4 1.9 6.3 6.2 5.3 10 -0.6 2.4 -1 2.5 -8.1 2.5 l-7.5 0 0 -2.9 c0 -2.9 -1.4 -4.1 -4.9 -4.1 -2.9 0 -7.1 3.9 -7.1 6.5 0 2.7 2.3 4.2 11 7 11.5 3.7 14 8 9.6 16.8 -2.7 5.4 -6.9 9.1 -12.5 10.7 -5 1.4 -16.1 2 -21.2 1z"/>
  <path d="M177 226.6 c0 -0.3 6.9 -11.2 15.3 -24.3 l15.3 -23.8 9.7 -0.3 c5.3 -0.1 9.7 -0.1 9.8 0 0.6 2.8 2.4 47.5 1.9 48.1 -0.4 0.4 -4 0.7 -8.1 0.5 l-7.4 -0.3 0 -4.4 0 -4.5 -5 -0.3 c-8.6 -0.6 -10.7 0.2 -13.4 5.2 l-2.4 4.5 -7.8 0 c-4.4 0 -7.9 -0.2 -7.9 -0.4z m37.2 -27.8 c0.2 -5.7 0.2 -10.4 0.2 -10.6 -0.3 -0.5 -11.4 19.5 -11.4 20.3 0 0.3 2.4 0.5 5.4 0.5 l5.5 0 0.3 -10.2z"/>
  <path d="M234 226.5 c0 -0.5 4 -14.3 12.1 -41.7 l2 -6.8 7.4 0 c5.6 0 7.5 0.3 7.5 1.3 0 1.5 -12.8 45.5 -13.6 46.9 -0.5 0.8 -15.4 1.2 -15.4 0.3z"/>
  <path d="M315 225.8 c0 -0.7 2.4 -9.5 5.4 -19.5 l5.3 -18.3 -6.8 0 -6.9 0 0.6 -2.7 c1.9 -7.9 -0.2 -7.3 24 -7.3 l21.6 0 -0.6 2.5 c-1.9 7.4 -2 7.5 -9.4 7.5 l-6.8 0 -3.4 11.8 c-1.8 6.4 -4.4 15.2 -5.7 19.5 l-2.4 7.7 -7.4 0 c-5.3 0 -7.5 -0.4 -7.5 -1.2z"/>
 </g>
 <g fill="#fd0100">
  <path d="M105 227.9 c0 -1 5.4 -1.9 6.3 -0.9 0.5 0.4 -0.7 1 -2.7 1.2 -2 0.2 -3.6 0.1 -3.6 -0.3z"/>
  <path d="M75 227 c0 -0.5 -0.3 -0.9 -0.7 -0.9 -2.5 0.4 -3.3 -0.4 -3.3 -3.1 0 -1.6 0.5 -3 1 -3 0.6 0 1 0.5 1 1 0 0.6 0.5 1 1 1 0.6 0 1 -0.6 1 -1.4 0 -2.3 7.1 -7.3 16.4 -11.7 11.6 -5.4 27.5 -10.5 43 -13.8 l12.9 -2.7 -3.8 -1.8 c-3.2 -1.6 -5.4 -1.8 -13.4 -1.3 -10.8 0.6 -21 3.4 -36.7 9.8 -9.6 3.9 -12.6 5.9 -8.9 5.9 0.8 0 1.5 0.5 1.5 1 0 1.6 -2.7 1.1 -3.4 -0.6 -0.5 -1.3 -2.1 -0.8 -9.3 3.1 -8.9 4.8 -19.9 11.2 -24.1 14.2 -1.2 0.8 -2.2 1.1 -2.2 0.6 0 -0.6 1.2 -1.9 2.6 -2.9 1.4 -1 3.2 -2.3 3.8 -2.9 0.6 -0.5 2.1 -1.5 3.1 -2.1 1.1 -0.7 7.8 -4.8 14.9 -9.3 7.1 -4.5 19.5 -11.5 27.5 -15.5 32.7 -16.5 55.5 -21.8 67.5 -15.6 2.9 1.4 3.6 1.5 3.6 0.4 0 -0.8 0.5 -1.4 1.1 -1.4 0.5 0 0.8 0.4 0.4 1 -0.3 0.5 0.5 3.1 1.9 5.7 2.3 4.7 4.5 14.3 3.2 14.3 -0.4 0 -2.3 -0.7 -4.3 -1.5 -4.1 -1.7 -17.4 -2 -20.4 -0.4 -1.4 0.7 -1.9 1.9 -1.8 4.2 0.2 4.1 -0.1 5.1 -3.3 11.5 -3.2 6 -3.4 7 -1.3 5.2 0.8 -0.7 1.5 -1 1.5 -0.7 0 1.1 15.9 -6 21.1 -9.3 2.7 -1.8 5.8 -4.3 6.9 -5.7 l1.9 -2.4 -0.6 3.8 c-0.6 3.9 -4 15.5 -6.7 22.8 l-1.4 4 -17.1 0.3 c-9.4 0.1 -17.1 0 -17.1 -0.4 0 -0.3 1.6 -2.4 3.5 -4.7 1.9 -2.2 3.3 -4.2 3.1 -4.4 -0.2 -0.2 -6.4 1.2 -13.7 3.1 -17.3 4.4 -26.2 5.9 -38 6 -7.5 0.1 -10.1 -0.3 -12.2 -1.6 -1.6 -1.1 -2.8 -1.4 -3.2 -0.8 -0.3 0.6 0 1 0.7 1 0.7 0 2.2 0.7 3.2 1.5 1.9 1.5 1.9 1.5 -0.2 1.5 -1.2 0 -2.2 -0.4 -2.2 -1z"/>
  <path d="M61.5 218 c-0.3 -0.5 0.3 -1 1.5 -1 1.2 0 1.8 0.5 1.5 1 -0.3 0.6 -1 1 -1.5 1 -0.5 0 -1.2 -0.4 -1.5 -1z"/>
  <path d="M70.5 212.9 c-1 -1.5 0.3 -2.5 1.6 -1.2 0.7 0.7 0.7 1.3 0.1 1.7 -0.6 0.3 -1.4 0.1 -1.7 -0.5z"/>
  <path d="M74.5 211.1 c-0.6 -1.1 2 -3.3 2.8 -2.4 0.4 0.3 0.7 1 0.7 1.4 0 1.1 -2.9 1.9 -3.5 1z"/>
  <path d="M178.8 199.3 c-0.2 -0.5 -0.1 -2.4 0.3 -4.3 l0.6 -3.5 0.2 4.3 c0.1 3.9 -0.3 5.2 -1.1 3.5z"/>
 </g>
 <g fill="#f7ffff">
  <path d="M133 238.4 c0 -0.9 0.5 -1.4 1.2 -1.2 1.8 0.6 2.1 2.8 0.4 2.8 -0.9 0 -1.6 -0.7 -1.6 -1.6z"/>
  <path d="M141 238.6 c0 -0.9 0.7 -1.6 1.6 -1.6 1.7 0 1.4 2.2 -0.4 2.8 -0.7 0.2 -1.2 -0.3 -1.2 -1.2z"/>
  <path d="M163 239.1 c0 -1.1 2.6 -2.2 3.4 -1.4 0.3 0.3 0.3 1 0 1.4 -0.7 1.2 -3.4 1.1 -3.4 0z"/>
  <path d="M62.5 234 c-0.3 -0.5 0.3 -1 1.4 -1 1.2 0 2.1 0.5 2.1 1 0 0.6 -0.6 1 -1.4 1 -0.8 0 -1.8 -0.4 -2.1 -1z"/>
  <path d="M134.5 233.1 c-0.9 -1.6 3.5 -3.5 4.8 -2.2 0.9 0.9 0.8 1.4 -0.3 2.1 -1.9 1.2 -3.7 1.3 -4.5 0.1z"/>
  <path d="M159 232.5 c0 -0.8 0.5 -1.5 1 -1.5 0.6 0 1 0.7 1 1.5 0 0.8 -0.4 1.5 -1 1.5 -0.5 0 -1 -0.7 -1 -1.5z"/>
  <path d="M164.1 233.1 c-1.5 -1 -0.8 -4.1 0.9 -4.1 1.5 0 2.5 2.9 1.4 4 -0.5 0.5 -1.5 0.5 -2.3 0.1z"/>
  <path d="M171 232.3 c0 -2.5 1.5 -3.8 2.5 -2.2 0.4 0.6 0 1.8 -0.9 2.7 -1.5 1.5 -1.6 1.5 -1.6 -0.5z"/>
  <path d="M127 231.3 c0 -1.1 0.8 -2.8 1.9 -3.7 3 -2.7 3.5 0.7 0.5 3.5 -2.3 2.2 -2.4 2.2 -2.4 0.2z"/>
  <path d="M44 230.1 c0 -0.5 0.6 -1.4 1.4 -2 1.6 -1.3 3.2 0.2 2.1 1.9 -0.8 1.2 -3.5 1.3 -3.5 0.1z"/>
  <path d="M65.8 228.7 c-1.6 -1.3 -2.8 -3.3 -2.8 -4.7 0 -1.3 0.3 -2 0.7 -1.6 0.4 0.4 0.8 1.5 0.8 2.4 0 0.9 1 2.1 2.3 2.7 1.2 0.5 2.2 1.5 2.2 2.2 0 1.6 0 1.7 -3.2 -1z"/>
  <path d="M37 226 c0 -3.4 0.6 -4.8 3.1 -7 3.1 -3 6.6 -4.6 7.6 -3.6 1.1 1 -0.7 3.6 -2.5 3.6 -1 0 -2.4 1.1 -3 2.5 -0.6 1.4 -1.6 2.5 -2.2 2.5 -0.5 0 -1 1.1 -1 2.4 0 1.4 -0.4 2.8 -1 3.1 -0.6 0.4 -1 -1 -1 -3.5z"/>
  <path d="M105.7 229.3 c-1.3 -1.3 -0.7 -2.1 2 -2.6 3.4 -0.6 4.4 -0.1 3.6 1.8 -0.5 1.5 -4.4 2.1 -5.6 0.8z"/>
  <path d="M75 227 c0 -0.5 -0.3 -0.9 -0.7 -0.9 -2.2 0.4 -3.4 -0.4 -4.8 -3.1 -1.9 -3.6 -1.9 -4 -0.1 -4 2.1 0 4.8 3 4.2 4.6 -0.3 0.8 0 1.4 0.7 1.4 0.7 0 2.1 0.7 3.1 1.5 1.9 1.5 1.9 1.5 -0.2 1.5 -1.2 0 -2.2 -0.4 -2.2 -1z"/>
  <path d="M30 223.5 c0 -1.6 0.6 -2.5 1.5 -2.5 0.9 0 1.5 0.9 1.5 2.5 0 1.6 -0.6 2.5 -1.5 2.5 -0.9 0 -1.5 -0.9 -1.5 -2.5z"/>
  <path d="M56 220.1 c1.3 -1.1 2.8 -1.7 3.3 -1.4 0.5 0.3 -0.4 1.1 -1.8 1.9 -3.8 2 -4.5 1.7 -1.5 -0.5z"/>
  <path d="M61.5 218 c-0.3 -0.5 0.3 -1 1.4 -1 1.2 0 2.1 0.5 2.1 1 0 0.6 -0.6 1 -1.4 1 -0.8 0 -1.8 -0.4 -2.1 -1z"/>
  <path d="M34.5 214 c1.9 -1.2 3.1 -1.6 3.4 -0.9 0.4 1.4 -1.8 2.9 -4.4 2.9 -1.7 0 -1.5 -0.4 1 -2z"/>
  <path d="M70.6 213.4 c-0.4 -0.9 -0.4 -1.9 -0.1 -2.2 0.6 -0.6 3.5 1.8 3.5 2.9 0 1.6 -2.8 1 -3.4 -0.7z"/>
  <path d="M74.6 211.1 c-0.7 -1.1 1.8 -3.3 2.7 -2.4 0.4 0.3 0.7 1.2 0.7 2 0 1.5 -2.6 1.8 -3.4 0.4z"/>
  <path d="M30.2 207.8 c0.3 -0.7 1.3 -1.5 2.2 -1.6 1.2 -0.3 1.7 0.1 1.4 1 -0.3 0.7 -1.3 1.5 -2.2 1.6 -1.2 0.3 -1.7 -0.1 -1.4 -1z"/>
  <path d="M49.5 208 c0.3 -0.5 1.5 -1 2.6 -1 1 0 1.9 0.5 1.9 1 0 0.6 -1.2 1 -2.6 1 -1.4 0 -2.3 -0.4 -1.9 -1z"/>
  <path d="M82.7 205.6 c-0.4 -1 0 -1.2 1.4 -0.9 2.2 0.6 2.6 2.3 0.5 2.3 -0.8 0 -1.6 -0.6 -1.9 -1.4z"/>
  <path d="M87.6 203.5 c0.4 -0.8 1.6 -1.5 2.7 -1.5 2 0 2 0 0.1 1.5 -2.5 1.9 -3.5 1.9 -2.8 0z"/>
  <path d="M154.4 203.5 c1.1 -0.8 2.4 -1.5 3 -1.5 0.5 0 0.1 0.7 -1 1.5 -1 0.8 -2.3 1.4 -2.9 1.4 -0.5 0 -0.1 -0.6 0.9 -1.4z"/>
  <path d="M63 201.5 c0 -1 6.2 -3.6 7.8 -3.2 1.2 0.3 0.6 0.9 -2 2 -3.7 1.7 -5.8 2.1 -5.8 1.2z"/>
  <path d="M178.8 199.8 c-0.2 -0.7 0.1 -4.6 0.7 -8.6 l1 -7.3 1.8 3 c1.6 2.8 1.6 3.2 0.3 3.7 -1.2 0.4 -1.6 2 -1.6 5.5 0 4.5 -1.3 6.6 -2.2 3.7z"/>
  <path d="M186.7 198.4 c-1.4 -1.4 -0.8 -6.4 0.8 -6.4 1.6 0 1.7 1 0.6 4.8 -0.3 1.3 -0.9 2 -1.4 1.6z"/>
  <path d="M154 197 c-0.8 -0.5 -1.2 -1.2 -0.8 -1.5 0.9 -0.9 4.8 0.4 4.8 1.6 0 1.2 -2.1 1.1 -4 -0.1z"/>
  <path d="M117.6 195.1 c-1.9 -0.7 -1.9 -0.8 0.2 -1.3 1.5 -0.4 2.2 -0.2 2.2 0.8 0 0.8 -0.1 1.4 -0.2 1.3 -0.2 0 -1.2 -0.4 -2.2 -0.8z"/>
  <path d="M160 194 c0 -0.5 1 -1 2.3 -1 1.8 0 1.9 0.2 0.7 1 -1.9 1.3 -3 1.3 -3 0z"/>
  <path d="M102.2 180.9 c0.3 -0.8 1.8 -1.5 3.4 -1.7 3.3 -0.4 2.4 1.1 -1.5 2.3 -1.7 0.5 -2.2 0.4 -1.9 -0.6z"/>
  <path d="M142 166.4 c0 -1 0.7 -1.4 2.2 -1.2 3.2 0.5 3.5 2.8 0.4 2.8 -1.7 0 -2.6 -0.5 -2.6 -1.6z"/>
  <path d="M158.7 165 c0.6 -2.3 2.8 -2.7 3.6 -0.6 0.7 1.7 -0.1 2.6 -2.4 2.6 -1.2 0 -1.6 -0.6 -1.2 -2z"/>
  <path d="M169.1 166.1 c-1.6 -1 -0.6 -3.1 1.5 -3.1 0.8 0 1.4 0.9 1.4 2 0 2.2 -0.7 2.5 -2.9 1.1z"/>
  <path d="M136.6 162.3 c-1.8 -0.3 -2.5 -0.8 -1.8 -1.2 1.6 -1 7.2 -0.2 7.2 1 0 0.9 -0.3 0.9 -5.4 0.2z"/>
 </g>
</svg>